<?xml version="1.0" encoding="utf-8"?>
<!-- Generator: Adobe Illustrator 23.0.1, SVG Export Plug-In . SVG Version: 6.00 Build 0)  -->
<svg version="1.1" id="Camada_1" xmlns="http://www.w3.org/2000/svg" xmlns:xlink="http://www.w3.org/1999/xlink" x="0px" y="0px"
	 viewBox="0 0 182 44" style="enable-background:new 0 0 182 44;" xml:space="preserve">
<style type="text/css">
	.st0{fill:#2C2C2C;}
	.st1{fill:#232323;}
	.st2{fill:#FFFFFF;}
</style>
<path class="st0" d="M9.2,42H173c4,0,7.3-3.3,7.3-7.3V8.6c0-4-3.3-7.3-7.3-7.3H9.2c-4,0-7.3,3.3-7.3,7.3v26.1
	C1.9,38.7,5.2,42,9.2,42z"/>
<path class="st1" d="M9.3,42H45V1.4H9.3c-4.1,0-7.4,3.3-7.4,7.4v25.8C1.9,38.6,5.2,42,9.3,42z"/>
<g>
	<path class="st2" d="M58.4,13.3h2.4v4.5c-0.6,0.5-1.3,0.8-2.1,1.1c-0.8,0.2-1.6,0.4-2.4,0.4c-1.2,0-2.2-0.2-3.1-0.7
		c-0.9-0.5-1.7-1.2-2.2-2.1c-0.5-0.9-0.8-1.9-0.8-3s0.3-2.1,0.8-3s1.3-1.6,2.2-2.1c0.9-0.5,2-0.7,3.2-0.7c1,0,1.9,0.2,2.7,0.5
		c0.8,0.3,1.5,0.8,2,1.4l-1.7,1.5c-0.8-0.8-1.8-1.3-2.9-1.3c-0.7,0-1.3,0.1-1.9,0.4s-1,0.7-1.3,1.3s-0.5,1.2-0.5,1.9
		c0,0.7,0.2,1.3,0.5,1.9s0.7,1,1.3,1.3c0.5,0.3,1.2,0.5,1.9,0.5c0.7,0,1.4-0.2,2-0.5V13.3z"/>
	<path class="st2" d="M63.1,8.8c-0.3-0.3-0.4-0.6-0.4-1c0-0.4,0.1-0.7,0.4-1c0.3-0.3,0.7-0.4,1.1-0.4s0.8,0.1,1.1,0.4s0.4,0.6,0.4,1
		c0,0.4-0.1,0.8-0.4,1s-0.7,0.4-1.1,0.4S63.4,9.1,63.1,8.8z M63,10.4h2.5V19H63V10.4z"/>
	<path class="st2" d="M73.4,18.6c-0.2,0.2-0.5,0.3-0.9,0.4c-0.4,0.1-0.7,0.1-1.1,0.1c-1,0-1.8-0.3-2.4-0.8c-0.6-0.5-0.8-1.3-0.8-2.3
		v-3.5h-1.3v-1.9h1.3V8.5h2.5v2.1h2.1v1.9h-2.1V16c0,0.4,0.1,0.6,0.3,0.8s0.5,0.3,0.8,0.3c0.4,0,0.7-0.1,1-0.3L73.4,18.6z"/>
	<path class="st2" d="M82.6,11.3c0.7,0.6,1,1.6,1,2.8V19h-2.5v-4.5c0-0.7-0.1-1.2-0.4-1.5c-0.3-0.3-0.7-0.5-1.3-0.5
		c-0.6,0-1.1,0.2-1.5,0.6c-0.4,0.4-0.6,1-0.6,1.7V19h-2.5V7.2h2.5v4.2c0.3-0.3,0.7-0.6,1.2-0.8c0.5-0.2,1-0.3,1.5-0.3
		C81.1,10.3,81.9,10.6,82.6,11.3z"/>
	<path class="st2" d="M94.5,10.4V19h-2.4v-1c-0.3,0.4-0.7,0.7-1.2,0.9c-0.5,0.2-1,0.3-1.5,0.3c-1.1,0-2-0.3-2.7-1
		c-0.7-0.7-1-1.6-1-2.9v-4.9h2.5v4.5c0,1.4,0.6,2.1,1.7,2.1c0.6,0,1.1-0.2,1.4-0.6c0.4-0.4,0.5-1,0.5-1.7v-4.3H94.5z"/>
	<path class="st2" d="M104.1,10.9c0.7,0.4,1.2,0.9,1.5,1.6s0.6,1.4,0.6,2.3c0,0.9-0.2,1.7-0.6,2.3c-0.4,0.7-0.9,1.2-1.5,1.6
		c-0.7,0.4-1.4,0.6-2.2,0.6c-1.2,0-2.1-0.4-2.7-1.1v1h-2.4V7.2h2.5v4.2c0.6-0.7,1.5-1,2.6-1C102.7,10.3,103.4,10.5,104.1,10.9z
		 M103,16.5c0.4-0.4,0.6-1,0.6-1.7c0-0.7-0.2-1.3-0.6-1.7c-0.4-0.4-0.9-0.6-1.6-0.6c-0.6,0-1.2,0.2-1.6,0.6c-0.4,0.4-0.6,1-0.6,1.7
		c0,0.7,0.2,1.3,0.6,1.7c0.4,0.4,0.9,0.6,1.6,0.6C102.1,17.1,102.6,16.9,103,16.5z"/>
</g>
<g>
	<path class="st2" d="M56.2,28c0.5,0.5,0.8,1.2,0.8,2.2v5.4h-0.3v-1.8c-0.3,0.6-0.7,1-1.2,1.3c-0.5,0.3-1.2,0.5-1.9,0.5
		c-0.9,0-1.6-0.2-2.2-0.6c-0.5-0.4-0.8-1-0.8-1.7c0-0.7,0.2-1.2,0.7-1.6c0.5-0.4,1.2-0.6,2.2-0.6h3.1v-0.9c0-0.9-0.2-1.5-0.7-2
		c-0.4-0.4-1.1-0.7-2-0.7c-0.6,0-1.2,0.1-1.7,0.3c-0.5,0.2-1,0.5-1.3,0.8l-0.2-0.2c0.4-0.4,0.9-0.7,1.4-0.9c0.6-0.2,1.2-0.3,1.8-0.3
		C54.9,27.3,55.7,27.5,56.2,28z M56.6,33.2v-1.8h-3.2c-0.9,0-1.6,0.2-2,0.5c-0.4,0.3-0.6,0.8-0.6,1.4c0,0.6,0.2,1.1,0.7,1.5
		s1.1,0.5,1.9,0.5C55,35.3,56.1,34.6,56.6,33.2z"/>
	<path class="st2" d="M66.7,28.2c0.6,0.6,0.9,1.4,0.9,2.6v4.9h-0.3v-4.9c0-1-0.3-1.8-0.8-2.3c-0.5-0.5-1.3-0.8-2.2-0.8
		c-1.1,0-1.9,0.3-2.6,1s-0.9,1.5-0.9,2.6v4.5h-0.3v-8.3h0.3v2.2c0.3-0.7,0.7-1.3,1.3-1.7c0.6-0.4,1.3-0.6,2.2-0.6
		C65.3,27.3,66.2,27.6,66.7,28.2z"/>
	<path class="st2" d="M78.3,23.7v11.9h-0.3v-2.5c-0.3,0.8-0.7,1.4-1.4,1.9c-0.7,0.5-1.4,0.7-2.3,0.7c-0.7,0-1.4-0.2-2-0.5
		s-1.1-0.9-1.4-1.5c-0.4-0.6-0.5-1.4-0.5-2.2s0.2-1.5,0.5-2.2s0.8-1.1,1.4-1.5c0.6-0.4,1.3-0.5,2-0.5c0.9,0,1.6,0.2,2.3,0.7
		c0.7,0.5,1.1,1.1,1.4,1.9v-6.1H78.3z M76.1,34.8c0.6-0.3,1-0.8,1.3-1.4c0.3-0.6,0.5-1.3,0.5-2s-0.2-1.4-0.5-2
		c-0.3-0.6-0.8-1.1-1.3-1.4c-0.6-0.3-1.2-0.5-1.9-0.5s-1.3,0.2-1.9,0.5c-0.6,0.3-1,0.8-1.3,1.4c-0.3,0.6-0.5,1.3-0.5,2
		s0.2,1.4,0.5,2c0.3,0.6,0.8,1.1,1.3,1.4c0.6,0.3,1.2,0.5,1.9,0.5S75.6,35.2,76.1,34.8z"/>
	<path class="st2" d="M83.4,27.8c0.6-0.4,1.2-0.6,2.1-0.6v0.3h-0.1c-1,0-1.8,0.3-2.3,1s-0.8,1.5-0.8,2.6v4.4h-0.3v-8.3h0.3v2.1
		C82.5,28.8,82.9,28.2,83.4,27.8z"/>
	<path class="st2" d="M94.5,31.4h-7.4c0,0.7,0.2,1.4,0.5,2c0.3,0.6,0.8,1.1,1.4,1.4c0.6,0.3,1.2,0.5,2,0.5c0.6,0,1.1-0.1,1.6-0.3
		s0.9-0.5,1.2-1l0.2,0.2c-0.4,0.4-0.8,0.8-1.3,1c-0.5,0.2-1.1,0.4-1.7,0.4c-0.8,0-1.5-0.2-2.1-0.5s-1.1-0.9-1.5-1.5
		c-0.4-0.6-0.5-1.4-0.5-2.2s0.2-1.5,0.5-2.2c0.3-0.6,0.8-1.1,1.4-1.5c0.6-0.4,1.2-0.5,2-0.5c0.7,0,1.4,0.2,2,0.5
		c0.6,0.4,1,0.8,1.4,1.5S94.5,30.6,94.5,31.4L94.5,31.4z M88.9,28c-0.5,0.3-0.9,0.7-1.3,1.3c-0.3,0.5-0.5,1.2-0.5,1.8h7.1
		c0-0.7-0.2-1.3-0.5-1.8c-0.3-0.5-0.7-1-1.3-1.3c-0.5-0.3-1.1-0.5-1.7-0.5C90,27.6,89.5,27.7,88.9,28z"/>
	<path class="st2" d="M97.2,23.7h0.3v11.9h-0.3V23.7z"/>
	<path class="st2" d="M106.1,28c0.5,0.5,0.8,1.2,0.8,2.2v5.4h-0.3v-1.8c-0.3,0.6-0.7,1-1.2,1.3c-0.5,0.3-1.2,0.5-1.9,0.5
		c-0.9,0-1.6-0.2-2.2-0.6c-0.5-0.4-0.8-1-0.8-1.7c0-0.7,0.2-1.2,0.7-1.6s1.2-0.6,2.2-0.6h3.1v-0.9c0-0.9-0.2-1.5-0.7-2
		s-1.1-0.7-2-0.7c-0.6,0-1.2,0.1-1.7,0.3c-0.5,0.2-1,0.5-1.3,0.8l-0.2-0.2c0.4-0.4,0.9-0.7,1.4-0.9c0.6-0.2,1.2-0.3,1.8-0.3
		C104.8,27.3,105.6,27.5,106.1,28z M106.5,33.2v-1.8h-3.2c-0.9,0-1.6,0.2-2,0.5c-0.4,0.3-0.6,0.8-0.6,1.4c0,0.6,0.2,1.1,0.7,1.5
		s1.1,0.5,1.9,0.5C104.9,35.3,105.9,34.6,106.5,33.2z"/>
	<path class="st2" d="M111.9,27.8c0.6-0.4,1.2-0.6,2.1-0.6v0.3h-0.1c-1,0-1.8,0.3-2.3,1s-0.8,1.5-0.8,2.6v4.4h-0.3v-8.3h0.3v2.1
		C111,28.8,111.4,28.2,111.9,27.8z"/>
	<path class="st2" d="M121.2,28c0.5,0.5,0.8,1.2,0.8,2.2v5.4h-0.3v-1.8c-0.3,0.6-0.7,1-1.2,1.3c-0.5,0.3-1.2,0.5-1.9,0.5
		c-0.9,0-1.6-0.2-2.2-0.6c-0.5-0.4-0.8-1-0.8-1.7c0-0.7,0.2-1.2,0.7-1.6s1.2-0.6,2.2-0.6h3.1v-0.9c0-0.9-0.2-1.5-0.7-2
		s-1.1-0.7-2-0.7c-0.6,0-1.2,0.1-1.7,0.3c-0.5,0.2-1,0.5-1.3,0.8l-0.2-0.2c0.4-0.4,0.9-0.7,1.4-0.9c0.6-0.2,1.2-0.3,1.8-0.3
		C120,27.3,120.7,27.5,121.2,28z M121.7,33.2v-1.8h-3.2c-0.9,0-1.6,0.2-2,0.5c-0.4,0.3-0.6,0.8-0.6,1.4c0,0.6,0.2,1.1,0.7,1.5
		s1.1,0.5,1.9,0.5C120,35.3,121.1,34.6,121.7,33.2z"/>
	<path class="st2" d="M131.8,35.3v0.3h-7.5v-0.2l4.8-4.9c0.7-0.7,1.1-1.3,1.4-1.7c0.2-0.5,0.4-1,0.4-1.5c0-0.8-0.3-1.4-0.8-1.9
		c-0.5-0.5-1.3-0.7-2.3-0.7c-0.8,0-1.4,0.1-2,0.3s-1.1,0.6-1.5,1l-0.2-0.2c0.9-1,2.1-1.4,3.7-1.4c1.1,0,1.9,0.3,2.5,0.8
		c0.6,0.5,0.9,1.2,0.9,2.1c0,0.6-0.1,1.1-0.4,1.6c-0.3,0.5-0.7,1.1-1.4,1.8l-4.6,4.6H131.8z"/>
	<path class="st2" d="M135.4,34.9c-0.6-0.5-1.1-1.1-1.5-2c-0.4-0.9-0.5-1.8-0.5-3c0-1.1,0.2-2.1,0.5-3c0.4-0.9,0.9-1.5,1.5-2
		c0.6-0.5,1.4-0.7,2.2-0.7s1.6,0.2,2.2,0.7c0.6,0.5,1.1,1.1,1.5,2c0.4,0.9,0.5,1.8,0.5,3c0,1.1-0.2,2.1-0.5,3
		c-0.4,0.9-0.9,1.5-1.5,2c-0.6,0.5-1.4,0.7-2.2,0.7S136.1,35.4,135.4,34.9z M139.7,34.7c0.6-0.4,1.1-1.1,1.4-1.9s0.5-1.7,0.5-2.8
		c0-1.1-0.2-2-0.5-2.8c-0.3-0.8-0.8-1.4-1.4-1.9c-0.6-0.4-1.3-0.7-2.1-0.7s-1.5,0.2-2.1,0.7c-0.6,0.4-1.1,1.1-1.4,1.9
		c-0.3,0.8-0.5,1.7-0.5,2.8c0,1.1,0.2,2,0.5,2.8c0.3,0.8,0.8,1.4,1.4,1.9c0.6,0.4,1.3,0.7,2.1,0.7S139.1,35.1,139.7,34.7z"/>
	<path class="st2" d="M145.9,34.9c-0.6-0.5-1.1-1.1-1.5-2c-0.4-0.9-0.5-1.8-0.5-3c0-1.1,0.2-2.1,0.5-3c0.4-0.9,0.9-1.5,1.5-2
		c0.6-0.5,1.4-0.7,2.2-0.7s1.6,0.2,2.2,0.7c0.6,0.5,1.1,1.1,1.5,2c0.4,0.9,0.5,1.8,0.5,3c0,1.1-0.2,2.1-0.5,3
		c-0.4,0.9-0.9,1.5-1.5,2c-0.6,0.5-1.4,0.7-2.2,0.7S146.5,35.4,145.9,34.9z M150.2,34.7c0.6-0.4,1.1-1.1,1.4-1.9s0.5-1.7,0.5-2.8
		c0-1.1-0.2-2-0.5-2.8c-0.3-0.8-0.8-1.4-1.4-1.9c-0.6-0.4-1.3-0.7-2.1-0.7s-1.5,0.2-2.1,0.7c-0.6,0.4-1.1,1.1-1.4,1.9
		c-0.3,0.8-0.5,1.7-0.5,2.8c0,1.1,0.2,2,0.5,2.8c0.3,0.8,0.8,1.4,1.4,1.9c0.6,0.4,1.3,0.7,2.1,0.7S149.6,35.1,150.2,34.7z"/>
	<path class="st2" d="M161.5,35.3v0.3H154v-0.2l4.8-4.9c0.7-0.7,1.1-1.3,1.4-1.7c0.2-0.5,0.4-1,0.4-1.5c0-0.8-0.3-1.4-0.8-1.9
		c-0.5-0.5-1.3-0.7-2.3-0.7c-0.8,0-1.4,0.1-2,0.3s-1.1,0.6-1.5,1l-0.2-0.2c0.9-1,2.1-1.4,3.7-1.4c1.1,0,1.9,0.3,2.5,0.8
		c0.6,0.5,0.9,1.2,0.9,2.1c0,0.6-0.1,1.1-0.4,1.6c-0.3,0.5-0.7,1.1-1.4,1.8l-4.6,4.6H161.5z"/>
</g>
<g>
	<path class="st2" d="M26.1,28.2c0.2,0.3,0.4,0.6,0.6,0.9C27,29.7,27,30.3,27,31c0,1.3,0,2.6,0,3.9c0,0.6,0.4,0.9,0.9,0.8
		c0.1,0,0.3-0.1,0.4-0.1c2.2-0.8,4-2,5.6-3.7c1.9-2,3.2-4.3,3.7-7c0.5-2.3,0.4-4.6-0.2-6.8c-1.2-4.2-3.7-7.3-7.6-9.3
		c-3-1.5-6.3-1.9-9.6-1.2c-3.5,0.7-6.3,2.6-8.4,5.3c-1.7,2.2-2.7,4.6-2.9,7.4c-0.3,3.5,0.4,6.8,2.4,9.7c0.8,1.1,1.7,2.2,2.7,3
		c1.4,1.2,2.9,2,4.6,2.6c0.7,0.2,1.2-0.1,1.1-0.8c0-0.8,0-1.6,0-2.3c0-0.1,0-0.1,0-0.2c-0.1,0-0.1,0-0.2,0c-0.8,0.2-1.6,0.1-2.5,0
		c-0.8-0.1-1.4-0.4-1.9-1.1c-0.2-0.3-0.3-0.6-0.5-0.9c-0.4-0.8-0.8-1.5-1.6-1.9c-0.1-0.1-0.2-0.2-0.4-0.3c-0.2-0.3-0.2-0.5,0.2-0.5
		c0.4-0.1,0.8,0.1,1.2,0.3c0.6,0.3,1.1,0.8,1.4,1.4c0.3,0.6,0.8,1,1.4,1.3c0.8,0.3,1.6,0.2,2.5-0.1c0.2-0.1,0.4-0.2,0.4-0.4
		c0-0.2,0.1-0.3,0.1-0.5c0.2-0.4,0.4-0.8,0.6-1.2c0,0,0,0-0.1,0c-1-0.1-2.1-0.3-3-0.8c-1.3-0.6-2.2-1.5-2.8-2.8
		c-0.4-0.9-0.6-1.9-0.6-2.8c0-0.6,0-1.3,0.1-1.9c0.1-1,0.6-1.9,1.3-2.6c0.1-0.1,0.1-0.2,0.1-0.3c-0.4-1-0.3-2.1,0-3.1
		c0.2-0.7,0.3-0.7,1-0.6c0,0,0,0,0,0c1.1,0.3,2,0.7,2.9,1.3c0.2,0.1,0.3,0.1,0.5,0.1c0.9-0.2,1.8-0.4,2.7-0.4
		c1.4-0.1,2.7,0.1,4.1,0.4c0.1,0,0.3,0,0.4-0.1c0.4-0.2,0.8-0.5,1.2-0.7c0.6-0.3,1.2-0.5,1.8-0.7c0.7-0.2,0.8-0.1,1,0.6
		c0.3,1.1,0.4,2.1,0,3.2c0,0.1,0,0.2,0.1,0.3c0.7,0.8,1.2,1.8,1.3,2.9c0.1,1.3,0,2.5-0.3,3.7c-0.2,0.8-0.6,1.5-1.1,2.1
		c-0.8,0.9-1.8,1.5-3,1.8C27.6,27.9,26.8,28,26.1,28.2z"/>
	<path class="st2" d="M26.1,28.2c0.7-0.1,1.4-0.3,2.1-0.5c1.1-0.3,2.2-0.9,3-1.8c0.5-0.6,0.9-1.3,1.1-2.1c0.4-1.2,0.5-2.5,0.3-3.7
		C32.5,19,32,18,31.3,17.2c-0.1-0.1-0.1-0.2-0.1-0.3c0.4-1.1,0.3-2.1,0-3.2c-0.2-0.6-0.3-0.8-1-0.6c-0.6,0.2-1.2,0.4-1.8,0.7
		c-0.4,0.2-0.8,0.5-1.2,0.7c-0.1,0.1-0.3,0.1-0.4,0.1c-1.3-0.3-2.7-0.5-4.1-0.4c-0.9,0-1.8,0.2-2.7,0.4c-0.2,0.1-0.3,0-0.5-0.1
		c-0.9-0.6-1.9-1.1-2.9-1.3c0,0,0,0,0,0c-0.7-0.2-0.8-0.1-1,0.6c-0.3,1.1-0.4,2.1,0,3.1c0,0.1,0,0.2-0.1,0.3
		c-0.7,0.8-1.1,1.6-1.3,2.6c-0.1,0.6-0.1,1.3-0.1,1.9c0,1,0.3,1.9,0.6,2.8c0.5,1.3,1.5,2.2,2.8,2.8c1,0.5,2,0.6,3,0.8
		c0,0,0.1,0,0.1,0c-0.2,0.4-0.4,0.8-0.6,1.2c-0.1,0.1-0.1,0.3-0.1,0.5c0,0.3-0.1,0.4-0.4,0.4c-0.8,0.2-1.6,0.4-2.5,0.1
		c-0.6-0.3-1.1-0.7-1.4-1.3c-0.3-0.6-0.8-1.1-1.4-1.4c-0.4-0.2-0.8-0.3-1.2-0.3c-0.4,0.1-0.5,0.2-0.2,0.5c0.1,0.1,0.2,0.2,0.4,0.3
		c0.8,0.4,1.2,1.2,1.6,1.9c0.1,0.3,0.3,0.7,0.5,0.9c0.5,0.6,1.1,1,1.9,1.1c0.8,0.1,1.6,0.2,2.5,0c0,0,0.1,0,0.2,0c0,0.1,0,0.1,0,0.2
		c0,0.8,0,1.6,0,2.3c0,0.7-0.5,1-1.1,0.8c-1.7-0.6-3.2-1.4-4.6-2.6c-1-0.9-1.9-1.9-2.7-3c-2-2.9-2.8-6.2-2.4-9.7
		c0.3-2.7,1.3-5.2,2.9-7.4c2.2-2.8,5-4.6,8.4-5.3c3.3-0.7,6.5-0.4,9.6,1.2c3.9,2,6.5,5.1,7.6,9.3c0.6,2.2,0.6,4.5,0.2,6.8
		c-0.6,2.7-1.8,5-3.7,7c-1.6,1.7-3.4,2.9-5.6,3.7c-0.1,0.1-0.3,0.1-0.4,0.1c-0.6,0.1-0.9-0.2-0.9-0.8c0-1.3,0-2.6,0-3.9
		c0-0.6,0-1.3-0.3-1.9C26.5,28.8,26.3,28.5,26.1,28.2z"/>
</g>
</svg>
