<?xml version="1.0" encoding="utf-8"?>
<!-- Generator: Adobe Illustrator 23.0.1, SVG Export Plug-In . SVG Version: 6.00 Build 0)  -->
<svg version="1.1" id="Camada_1" xmlns="http://www.w3.org/2000/svg" xmlns:xlink="http://www.w3.org/1999/xlink" x="0px" y="0px"
	 viewBox="0 0 100 100" style="enable-background:new 0 0 100 100;" xml:space="preserve">
<style type="text/css">
	.st0{fill:#EF732E;}
	.st1{fill:#FFFFFF;}
	.st2{fill:none;}
	.st3{fill:#040006;}
</style>
<rect x="0" y="0" class="st0" width="100" height="100"/>
<g>
	<path class="st1" d="M79.9,47.5c0.9-0.3,1.7-0.6,2.4-1.1c0.4-0.3,0.8-0.5,0.1-0.9c-2.7-1.6-4.7-4.1-6.7-6.6c-1.3-1.6-1.5-3.1-1.2-5
		c0.7-5.8,0.3-11.4-2.8-16.6c-1.6-2.8-2-2.9-4.9-1.3c-3.5,2-6.1,4.9-8.4,8.1c-0.4,0.6-0.8,0.8-1.5,0.9c-3.9,0.3-7.9,0.3-11.8,0
		c-0.8-0.1-1.3-0.3-1.7-0.9c-2.4-3.5-5.2-6.6-9.1-8.4c-2.9-1.3-2.2-1.1-3.7,1c-0.3,0.5-0.6,1-0.9,1.5c-2.9,5.6-3,11.5-2.1,17.5
		c0.1,0.8-0.1,1.3-0.4,1.9c-2.2,3.3-4.7,6.4-8.2,8.4c0.6,0.6,1.3,1,1.9,1.2c1.1,0.3,1,0.8,0.5,1.5c-1.3,2.3-2.5,4.5-4.6,6.2
		c1.3,0.6,2.4,1.2,3.4,1.9c3.3,2.2,5,5.4,6.3,8.9c0.8,2,1.5,4.1,2.8,5.9c0.3,0.4,0.5,0.9,1.1,1c0.1-1.3-0.2-2.6,0.4-4
		c1.7,3,3.7,5.6,6.3,7.5c5.2,4,9.4,8.9,13.1,14.3c0.6,0.9,0.8,0.7,1.3-0.1c3.7-5.4,7.8-10.3,13.1-14.3c1.7-1.3,3.1-2.9,4.4-4.6
		c0.6-0.9,1.2-1.8,1.9-2.7c0.6,1.3,0.2,2.7,0.5,4.1c1-1.1,1.8-2.1,2.3-3.3c0.7-1.7,1.4-3.4,2.1-5.1c1.1-3,2.8-5.5,5.5-7.3
		c1.2-0.8,2.4-1.5,3.8-2.1C82.6,52.8,81.2,50.2,79.9,47.5z"/>
	<path class="st1" d="M79.9,47.5c1.3,2.7,2.7,5.3,5.2,7.3c-1.4,0.7-2.6,1.3-3.8,2.1c-2.6,1.9-4.3,4.4-5.5,7.3
		c-0.7,1.7-1.4,3.4-2.1,5.1c-0.5,1.2-1.3,2.2-2.3,3.3c-0.3-1.4,0.1-2.8-0.5-4.1c-0.7,1-1.3,1.9-1.9,2.7c-1.3,1.7-2.7,3.4-4.4,4.6
		c-5.3,3.9-9.4,8.9-13.1,14.3c-0.5,0.7-0.7,0.9-1.3,0.1C46.6,84.9,42.4,80,37.2,76c-2.6-2-4.6-4.5-6.3-7.5c-0.6,1.4-0.4,2.7-0.4,4
		c-0.6-0.1-0.9-0.7-1.1-1c-1.3-1.8-2-3.8-2.8-5.9c-1.3-3.6-3.1-6.8-6.3-8.9c-1.1-0.7-2.2-1.3-3.4-1.9c2.1-1.7,3.4-3.9,4.6-6.2
		c0.4-0.8,0.6-1.3-0.5-1.5c-0.7-0.2-1.3-0.6-1.9-1.2c3.5-2.1,6-5.2,8.2-8.5c0.4-0.6,0.6-1.1,0.4-1.9c-0.9-6-0.8-11.9,2.1-17.5
		c0.3-0.5,0.5-1.1,0.9-1.5c1.5-2.2,0.8-2.4,3.7-1c3.9,1.8,6.7,5,9.1,8.4c0.5,0.7,0.9,0.9,1.7,0.9c3.9,0.3,7.9,0.3,11.8,0
		c0.7-0.1,1.1-0.3,1.5-0.9c2.3-3.3,4.9-6.2,8.4-8.1c2.9-1.6,3.2-1.5,4.9,1.3c3,5.2,3.5,10.9,2.8,16.6c-0.3,2-0.1,3.5,1.2,5
		c2,2.5,3.9,4.9,6.7,6.6c0.8,0.5,0.4,0.6-0.1,0.9C81.6,47,80.7,47.2,79.9,47.5z M33.4,53.7c-0.4,0.5-0.8,1.1-1.2,1.6
		c-0.3-0.4-0.6-0.9-0.9-1.3c-0.5-0.6-1-0.6-1.1,0.3c-0.2,0.9-0.6,1.7-0.6,2.6c-0.1,0.5-0.3,1-0.4,1.6c-0.7,1.6-1.5,3.3-0.2,5.1
		c0.4-0.8,0.7-1.5,1.1-2.2c0.4-0.6,0.8-0.8,1.1,0.1c0.3,0.9,0.8,1.8,1.2,2.7c1.3,3.2,3.1,6.1,5.8,8.4c1.3,1.1,2.7,2.3,4,3.4
		c3.3,2.7,5.9,6,8.1,9.6c0.6,1,1,0.9,1.4-0.1c0.3-0.6,0.6-1.2,1-1.7c2.6-3.8,5.9-7,9.5-9.8c3.4-2.6,5.8-5.8,7.4-9.7
		c0.5-0.8,0.9-1.8,1.2-2.7c0.3-0.9,0.7-0.8,1.1-0.1c0.2,0.5,0.5,1,0.7,1.5c0.1,0.2,0,0.6,0.4,0.6c0.3,0,0.4-0.3,0.5-0.5
		c0.8-1.6,0-3-0.6-4.5c-0.1-0.5-0.3-1-0.4-1.6c-0.1-0.4-0.1-0.8-0.2-1.2c-0.3-0.7,0-1.9-0.8-2c-0.8-0.2-1,1-1.6,1.6
		c-0.4-0.5-0.8-1.1-1.2-1.6c-0.3-0.9-0.9-1.5-1.6-2.2c-1.3,2.8-3.4,4.7-6,6.1c-0.4-1.8-0.4-1.9,1.2-2.7c1.3-0.7,2.6-1.5,3.5-2.8
		c-0.6-0.4-0.8,0.4-1.3,0.2c0.3-1.9,1-3.6,1.7-5.3c0.4-0.8,1.8-1.4,1.4-2.3c-0.4-0.8-1.6-1.1-2.6-1.4c-0.2-0.1-0.3-0.1-0.5-0.1
		c-1.3,0-1.5-0.7-1.2-1.8c0.4-1.1-0.1-1.1-1-0.9c-1.9,0.5-3.7,1-5.3,2.1c-0.4-0.5,0-1-0.5-1.4c-0.9,1-1.9,2-2,3.5
		c-0.5,0.6,0,1.6-0.7,2.1c-1.2,0.9-2.2,1.8-2.8,3.4c-0.4-1-0.8-1.8-1.4-2.3c-1.2-0.8-1.9-1.8-2-3.2c-0.2-1.5-1-2.5-2.2-3.6
		c-0.1,0.7-0.1,1.1-0.2,1.6c-1.7-1.1-3.5-1.7-5.4-2.1c-0.8-0.2-1.3-0.3-1,0.9c0.3,1,0.2,1.8-1.2,1.8c-0.7,0-1.3,0.4-1.9,0.7
		c-1.6,0.8-1.6,0.8-0.6,2.1c0.3,0.4,0.5,0.8,0.8,1.1c0.7,1.7,1.4,3.4,1.7,5.2c-0.5-0.1-0.9-0.6-1.5-0.3c1,1.2,2.2,2.1,3.6,2.8
		c1.5,0.8,1.6,0.9,1.2,2.7c-2.6-1.5-4.7-3.4-6.1-6.3C34.3,52.3,33.6,52.8,33.4,53.7z M36.3,40.8c-0.1-0.7-0.5-1-0.9-1.3
		c-0.6-0.5-0.5-0.9,0.3-1c1.3-0.2,2.5-0.4,3.9-0.3c1.4,0.2,2.7,0.6,4,1.3c0-0.4,0-0.6,0.1-0.8c0.1-0.5-0.3-1.1,0.1-1.3
		c0.6-0.3,1,0.3,1.4,0.6c2,1.4,3.6,3.2,5,5.3c0.6,0.8,0.9,1.1,1.6,0.1c1.3-1.9,2.8-3.6,4.6-4.9c0.6-0.4,1.1-1.2,1.8-0.9
		c0.6,0.3,0.1,1.1,0.2,1.7c0,0.1,0.1,0.1,0.2,0.3c0.2-0.1,0.4-0.1,0.6-0.2c2.2-1.2,4.6-1.2,7-0.8c0.3,0.1,0.7,0.1,0.9,0.4
		c0.1,0.4-0.3,0.6-0.5,0.8c-0.3,0.4-0.6,0.7-1.2,1.3c1.4-0.5,2.5-0.8,3.6-0.8c-0.1-0.7-0.9-0.7-0.9-1.3c0.2-0.3,0.7,0.1,0.9-0.4
		c-1.1-1.7-3.6-1.2-4.8-3.1c1.2,0.2,2,0.9,3.1,0.5c-0.4-0.6-0.9-1.1-1.1-1.7c-0.6-1.6-1.9-2.5-3.3-3c-0.6-0.2-1-0.5-1.2-1.1
		c-0.7-1.7-1.8-2.4-3.7-2.4c-1.8,0.1-3.5,0.6-5.3,0.8c-0.3-0.5,0.4-0.7,0.3-1.3c-1.2,0.5-2.4,0.5-3.6-0.1c-0.1,0.6,0.7,0.8,0.3,1.2
		c-0.3,0.3-0.7-0.1-1.1-0.1c-0.8-0.2-1.6-0.4-2.5-0.5c-2.7-0.2-4.2-0.7-5.6,2.6c-0.1,0.2-0.2,0.5-0.5,0.5c-2.7,0.6-3.7,2.8-4.9,4.9
		c1.1,0.4,1.9-0.4,3-0.5c-0.4,0.8-1,1.1-1.7,1.4c-0.7,0.3-1.5,0.6-2.2,0.9c-0.3,0.2-0.9,0.3-0.8,0.8c0,0.4,0.8-0.1,0.8,0.4
		c-0.1,0.6-0.8,0.6-0.8,1.2C34.3,40.1,35.3,40.3,36.3,40.8z M34.4,28.7c-1.4-1.3-1.6-2.8-1.9-4.3c-0.1-0.5-0.2-0.9-0.4-1.3
		c-0.4-1.3-0.4-1.3,0.9-1.1c0.7,0.1,1.1,0,0.9-0.9c-0.3-1.2-0.7-2.4-1.3-3.5c-0.2-0.3-0.3-0.6-0.6-0.5c-0.4,0-0.4,0.4-0.5,0.7
		c-0.6,1.9-1.1,3.7-1.7,5.6c-1.2,3.8-0.8,7.6,0.7,11.3c0.4,1,0.7,1,1.4,0.3c0.6-0.7,1.1-1.3,1.4-2.2c0.2-0.6,0.2-1-0.6-1.1
		c-0.8-0.1-1.3-0.6-1.4-1.4c0.5-0.3,1.3,0,1.3-0.3C32.4,28.4,33.5,28.8,34.4,28.7z M72.8,28.1c0-2.3-1.4-8.1-2.5-10.6
		c-0.3-0.8-0.7-0.5-0.9-0.1c-0.6,1-1.1,2-1.3,3.1c-0.3,1.5-0.3,1.5,1.2,1.3c0.7-0.1,1,0,0.7,0.8c-0.2,0.5-0.4,1.1-0.6,1.7
		C69,25.6,69,27,68,28.2c-0.5,0.6,0.1,0.6,0.5,0.6c1.1,0,0.7,1.9,2,1.6c-0.1,0.1-0.1,0.2-0.2,0.4c-0.2,0.4-0.5,0.7-0.9,0.8
		c-1.4,0.2-1.1,0.9-0.7,1.8c0.4,0.8,0.9,1.4,1.5,2c0.4,0.4,0.7,0.4,0.9-0.2C72.1,32.8,72.7,30.5,72.8,28.1z"/>
	<path class="st1" d="M36.3,40.8c-1.1-0.5-2.1-0.7-3.1-0.7c0-0.6,0.7-0.7,0.8-1.2c-0.1-0.5-0.8,0.1-0.8-0.4c0-0.5,0.5-0.7,0.8-0.8
		c0.7-0.4,1.5-0.6,2.2-0.9c0.7-0.3,1.3-0.6,1.7-1.4c-1.1,0.1-1.9,0.8-3,0.5c1.2-2.1,2.2-4.3,4.9-4.9c0.3-0.1,0.4-0.3,0.5-0.5
		c1.3-3.3,2.9-2.8,5.6-2.6c0.8,0.1,1.6,0.3,2.5,0.5c0.4,0.1,0.8,0.4,1.1,0.1c0.4-0.4-0.4-0.7-0.3-1.2c1.2,0.5,2.4,0.5,3.6,0.1
		c0.1,0.5-0.5,0.7-0.3,1.3c1.7-0.2,3.4-0.7,5.3-0.8c1.9-0.1,3,0.7,3.7,2.4c0.2,0.6,0.6,0.9,1.2,1.1c1.5,0.6,2.7,1.5,3.3,3
		c0.2,0.6,0.7,1.1,1.1,1.7c-1.1,0.4-1.9-0.3-3.1-0.5c1.2,2,3.7,1.5,4.8,3.1c-0.2,0.5-0.6,0.1-0.9,0.4c0,0.6,0.8,0.7,0.9,1.3
		c-1.2,0-2.2,0.4-3.6,0.8c0.5-0.6,0.8-1,1.2-1.3c0.2-0.3,0.6-0.4,0.5-0.8c-0.1-0.4-0.6-0.4-0.9-0.4c-2.4-0.4-4.7-0.4-7,0.8
		c-0.2,0.1-0.4,0.2-0.6,0.2c-0.1-0.1-0.1-0.2-0.2-0.3c-0.2-0.6,0.4-1.5-0.2-1.7c-0.7-0.3-1.3,0.5-1.8,0.9c-1.8,1.4-3.3,3.1-4.6,4.9
		c-0.7,1-1,0.8-1.6-0.1c-1.4-2-3-3.8-5-5.3c-0.4-0.3-0.9-0.9-1.4-0.6c-0.4,0.2-0.1,0.9-0.1,1.3c0,0.2,0,0.4-0.1,0.8
		c-1.3-0.6-2.6-1.1-4-1.3c-1.3-0.2-2.6,0-3.9,0.3c-0.8,0.2-0.9,0.5-0.3,1C35.8,39.8,36.2,40.1,36.3,40.8z M62,34.6
		c-2.3-0.6-4.6-0.3-7-0.1c0.2-0.9,1.1-1.1,1.4-1.9c-0.8,0-1.5,0.2-2.2,0.5c-1,0.5-2,1.3-3.2,0.4c-0.1-0.1-0.5,0-0.7,0.2
		c-0.7,0.6-1.3,0.3-1.9-0.1c-1.6-0.9-1.9-0.9-2.8-0.5c0.4,0.5,1,0.8,1.1,1.5c-2.3-0.3-4.5-0.5-6.7,0c0.1,0.6,0.8,0.2,0.8,0.7
		c-0.3,0.3-0.8,0.3-1,0.8c0.4,0.2,0.7,0.1,1.1,0c1.8-0.3,3.4,0.2,4.9,0.9c0.2,0.1,0.8,0.3,0.5,0.5c-0.9,0.6-0.1,0.6,0.2,0.7
		c1.3,0.7,2.7,1.4,3.8,2.4c0.3,0.3,0.6,0.4,1,0c1.1-1.1,2.5-1.8,3.9-2.5c0.2-0.1,0.7-0.3,0.4-0.5c-0.8-0.6,0-0.7,0.3-0.9
		c0.8-0.4,1.6-0.6,2.4-0.8c1.2-0.3,2.3,0,3.5,0c-0.2-0.6-0.8-0.5-1-0.9C61.2,34.8,61.8,35.1,62,34.6z"/>
	<path class="st1" d="M32.3,64.3c0.5-0.8-0.4-1.7,0-2.6c1.5,1.1,2.5,2.5,3.5,4.1c0-0.6,0-1.1,0-1.7c1,0.4,1,1.3,1.3,1.9
		c0.5,0.9,0,2.1,1.2,2.9c0.4,0.2,0.2,1.3,0.3,2c0.1,0.9,0.6,1.2,1.2,0.6c0.4-0.4,0.5,0,0.7,0.2c0.6,0.6,1,1.4,1.4,2.1
		C42,74,42,74,42.5,74c0.3,0,0.4,0.3,0.5,0.5c0.3,1,1.2,1.4,1.6,2.3c0.5-0.5-0.3-1,0.3-1.5c1.5,1.7,1.4,4.4,3.4,5.9
		c0.3-0.7-0.1-1.2,0-1.9c0.9,0.4,1.5,1,2,1.8c0.4,0.7,0.7,0.9,1.2,0.1c0.5-0.7,1.1-1.2,1.7-1.8c0.5,0.5,0,1.2,0.5,1.7
		c1.8-1.5,1.8-4,3.2-5.8c0.7,0.4-0.2,1,0.3,1.4c0.4-0.4,0.8-0.9,1.1-1.3c0.4-0.5,0.2-1.5,1.3-1.1c0,0,0.2-0.4,0.4-0.6
		c0.4-0.7,0.9-1.4,1.4-2.1c0.2-0.2,0.4-0.4,0.6-0.1c0.7,1.1,0.9,0.1,1.2-0.3c0.2-0.3,0.1-0.7,0.2-1c0.2-0.6-0.2-1.5,0.9-1.7
		c0.2,0,0.2-0.8,0.3-1.2c0.2-1.2,0.5-2.4,1.4-3.4c0.4,0.6,0.1,1.1,0.3,1.7c1.1-1.4,1.8-3.1,3.5-4.1c0.2,0.9-0.4,1.8,0,2.6
		c-1.6,3.9-4,7.2-7.4,9.7c-3.6,2.8-6.9,6-9.5,9.8c-0.4,0.6-0.7,1.1-1,1.7c-0.5,0.9-0.8,1.1-1.4,0.1c-2.2-3.6-4.8-6.9-8.1-9.6
		c-1.4-1.1-2.7-2.2-4-3.4C35.5,70.4,33.7,67.5,32.3,64.3z"/>
	<path class="st1" d="M34.4,28.7c-1,0.2-2-0.3-1.8,1.2c0.1,0.4-0.8,0.1-1.3,0.3c0.1,0.8,0.6,1.3,1.4,1.4c0.8,0.1,0.8,0.5,0.6,1.1
		c-0.3,0.9-0.8,1.5-1.4,2.2c-0.7,0.7-1,0.8-1.4-0.3c-1.4-3.7-1.9-7.4-0.7-11.3c0.6-1.9,1.1-3.8,1.7-5.6c0.1-0.3,0.1-0.7,0.5-0.7
		c0.3,0,0.5,0.3,0.6,0.5c0.6,1.1,1.1,2.2,1.3,3.5c0.2,0.9-0.2,1-0.9,0.9c-1.3-0.2-1.3-0.2-0.9,1.1c0.2,0.4,0.3,0.9,0.4,1.3
		C32.9,25.9,33,27.4,34.4,28.7z"/>
	<path class="st1" d="M72.8,28.1c0,2.4-0.7,4.7-1.6,6.9c-0.2,0.6-0.5,0.6-0.9,0.2c-0.6-0.6-1.2-1.2-1.5-2c-0.4-0.8-0.7-1.6,0.7-1.8
		c0.4-0.1,0.7-0.4,0.9-0.8c0.1-0.1,0.1-0.2,0.2-0.4c-1.3,0.3-0.9-1.6-2-1.6c-0.4,0-1.1,0-0.5-0.6c1-1.1,1-2.5,1.4-3.8
		c0.2-0.6,0.3-1.1,0.6-1.7c0.3-0.8,0-0.9-0.7-0.8c-1.5,0.2-1.5,0.2-1.2-1.3c0.3-1.1,0.7-2.1,1.3-3.1c0.3-0.5,0.6-0.7,0.9,0.1
		C71.4,20,72.8,25.8,72.8,28.1z"/>
	<path class="st1" d="M47.5,44.6c-0.2,0-0.4,0-0.5-0.1c-0.7-0.6-1.1-0.5-1.2,0.6c-0.9-0.9-1.6-1.8-2.7-2.2c-0.5-0.2-1-0.4-1.7-0.6
		c0.5,1.2,0,1.4-1,1.4c-1.3,0.1-2.5,0.3-3.8,0.7c-1,0.3-1.3,0.8-0.4,1.6c0.3,0.2,0.7,0.5,0.5,0.9c-0.2,0.3-0.5,0.2-0.8,0.1
		c-0.3-0.4-0.5-0.8-0.8-1.1c-1-1.4-1-1.3,0.6-2.1c0.6-0.3,1.2-0.7,1.9-0.7c1.3-0.1,1.5-0.8,1.2-1.8c-0.4-1.1,0.1-1.1,1-0.9
		c1.9,0.5,3.7,1,5.4,2.1c0.1-0.6,0.1-1,0.2-1.6C46.4,42.1,47.3,43.2,47.5,44.6z"/>
	<path class="st1" d="M66,47c-0.8,0.1-0.8-0.2-0.4-0.8c0.9-1.3,0.8-1.3-0.7-1.8c-1.3-0.4-2.6-0.6-3.9-0.7c-0.3,0-0.8,0.1-0.7-0.4
		c0.3-1.5-0.7-0.6-1-0.5c-1.3,0.4-2.2,1.3-3,2.3c-0.5-0.2-0.1-0.8-0.5-0.9c-0.5,0-0.8,0.7-1.4,0.5c0.1-1.5,1.1-2.5,2-3.5
		c0.5,0.4,0.1,1,0.5,1.4c1.6-1,3.4-1.6,5.3-2.1c0.8-0.2,1.3-0.2,1,0.9c-0.4,1-0.1,1.8,1.2,1.8c0.2,0,0.3,0.1,0.5,0.1
		c1,0.3,2.2,0.6,2.6,1.4C67.8,45.6,66.4,46.1,66,47z"/>
	<path class="st1" d="M68.6,53.7c-0.4,0.7-1.1,1-1.9,1.3c0.6,0.5,1.3,0.4,1.8,0.9C67.6,57,66.3,57,65,57.1c-0.1,0.7,0.8,0.6,0.9,1.2
		c-0.8,0.1-1.5,0.1-2.4-0.3c0.2,0.7,0.5,1.2-0.6,0.9c-0.8-0.3-1.6-0.3-1.9-1.3c2.6-1.4,4.7-3.3,6-6.1C67.7,52.2,68.2,52.8,68.6,53.7
		z"/>
	<path class="st1" d="M41,57.6c-0.8,1.3-1.1,1.4-2.6,0.5c-0.1-0.1-0.4,0.1-0.6,0.1c-0.5,0.1-1.1,0.1-1.7,0.1c0.2-0.6,0.7-0.7,1-1.1
		c-0.7-0.4-1.6-0.1-2.3-0.4c-0.5-0.3-1.2-0.3-1.2-0.9c0-0.5,0.8-0.4,1.2-0.5c0.2-0.1,0.3-0.2,0.6-0.3c-0.8-0.4-1.4-0.8-1.9-1.4
		c0.3-0.9,0.9-1.4,1.5-2.4C36.2,54.2,38.4,56.1,41,57.6z"/>
	<path class="st1" d="M72.4,56.9c-1,0.3-0.8,1.6-1.8,2.1c-0.1-1.3-0.9-2.4-0.9-3.7c0.5-0.6,0.7-1.7,1.6-1.6c0.8,0.2,0.6,1.3,0.8,2
		C72.3,56.1,72.3,56.5,72.4,56.9z"/>
	<path class="st1" d="M32.1,55.3c0.1,1-0.5,1.9-0.7,2.8c0,0.2-0.1,0.6-0.4,0.5c-0.2,0-0.4-0.3-0.6-0.4c-0.4-0.4-0.2-1.2-1-1.3
		c-0.1-0.9,0.4-1.7,0.6-2.6c0.2-0.9,0.6-0.9,1.1-0.3C31.6,54.4,31.8,54.9,32.1,55.3z"/>
	<path class="st1" d="M71.9,61.5c0.7-0.4,0.6-1,0.7-1.6c0.1-0.5-0.2-1,0.3-1.4c0.6,1.5,1.4,2.9,0.6,4.5c-0.1,0.2-0.1,0.5-0.5,0.5
		c-0.4,0-0.3-0.4-0.4-0.6C72.3,62.5,72.1,62,71.9,61.5z"/>
	<path class="st1" d="M29.1,58.5c0.5,0.5,0.1,1.1,0.3,1.6c0.1,0.5,0,1.1,0.7,1.3c-0.3,0.7-0.7,1.4-1.1,2.2
		C27.7,61.8,28.4,60.1,29.1,58.5z"/>
	<path class="st1" d="M56.5,72.6c1.3-1,1.2-2.4,1.4-3.7c0.3-1.9,0.4-3.9,0.3-5.8c0.2-1.3,0-2.7-0.1-4.3c0.6,0.6,0.6,1.1,0.7,1.5
		c0.7,2.8,0.8,5.7,0.9,8.5c0,0.2,0,0.4,0.2,0.4c0.2,0,0.4-0.1,0.3-0.4v0.1c1,0.1,1.1-1.1,1.9-1.3c0.3,0.6-0.1,1.1-0.3,1.6
		c-0.9,2-2.4,3.5-4.2,4.7c-1.4,1-2.9,1.8-4.2,3c-1.3,1.2-3.5,1.1-4.7-0.1c-1.1-1-2.4-1.8-3.7-2.6c-2.4-1.6-4.3-3.7-5.2-6.6
		c1.1,0,1.2,1.4,2.2,1.3v-0.1c-0.2,0.3,0.1,0.4,0.3,0.4c0.2,0,0.2-0.2,0.2-0.4c0.1-3.3,0.2-6.5,1.5-9.6c0,1.3,0,2.6,0,3.9
		c-0.1,2.7,0.1,5.3,0.7,7.9c0.2,0.7,0.3,1.5,1.2,1.6v-0.1c-0.1,0.3,0.1,0.3,0.3,0.4c1,0.8,2.2,0.9,3.4,1.1c0.4,0.1,0.9,0.3,1-0.5
		c0.1-0.7-0.3-0.7-0.8-0.8c-1.5-0.3-3-0.8-4-2c-0.2-0.6-0.4-1.3-0.5-1.9c0.2-0.5,0.2-1.1,0.1-1.6c0-0.2,0.1-0.5,0.1-0.7
		c0.5-1,0.6-2.1,1.3-3c0.4,1.8,0.9,2.2,2.6,1.8c1.2-0.3,2.4-0.3,3.6-0.1c2.1,0.4,2.3,0.3,2.9-1.8c1,1.5,1.2,3.3,1.5,5
		c-0.2,0.9-0.3,1.7-0.8,2.5c-1.2,1-2.5,1.4-4,1.7c-0.5,0.1-0.7,0.3-0.7,0.8c0,0.6,0.4,0.5,0.8,0.5C53.9,73.8,55.3,73.7,56.5,72.6z"
		/>
	<path class="st1" d="M56.2,48.9c0.4-1.9,1.1-3.7,2.9-4.9c0.1,0.8-0.6,1.2-0.4,2c1.9-0.9,3.8-1.1,6.1-0.8c-1.2,1.3-2,2.7-3.3,3.7
		c-1.6,1.1-3.7,0.9-5.3,2.4C56.2,50.4,56.2,49.7,56.2,48.9z M61,47.2c-0.1-0.3,0.2-0.7-0.3-1c-0.2-0.1-0.5-0.1-0.6,0.1
		c-0.1,0.3-0.6,0.7-0.3,0.9c0.7,0.5,0.3,0.8-0.1,1.1c-0.5,0.3-0.9,0.2-1.3-0.2c-0.2-0.2-0.2-0.7-0.6-0.2c-0.2,0.3-0.2,0.6,0.2,0.8
		c0.6,0.3,1.1,0.7,1.8,0.3C60.6,48.6,61,48.1,61,47.2z"/>
	<path class="st1" d="M43.7,63c0-1.3,0-2.6,0-3.9c-1.3,3.1-1.4,6.4-1.5,9.6c-0.2,0-0.3,0-0.5,0v0.1c-0.5-1.3-0.9-2.7-1.3-4
		c-0.1-0.4-0.6-1.2,0.6-0.9c0.5,0.1,0.4-0.2,0.4-0.5c-0.4-1.8,0.1-3.5,0.9-5.1c0.8-1.5,1.3-3.2,1.3-5c1,0.7,0.9,1.7,1.1,2.6
		c0.6,2.4,0,4.7-0.7,7C44,63,43.9,63,43.7,63z"/>
	<path class="st1" d="M59.6,68.8c-0.1-2.9-0.1-5.7-0.9-8.5c-0.1-0.4-0.1-0.9-0.7-1.5c0.1,1.6,0.3,3,0.1,4.3c-0.9-0.8-0.8-1.9-1-2.8
		c-0.5-2-0.3-4.1,0.4-6c0.1-0.3,0.4-0.6,0.7-1.1c0,2.7,1.2,4.8,2.1,7c0.4,0.9,0.2,1.7,0.3,2.6c0.1,0.5-0.8,1.5,0.7,1.2
		c0.3-0.1,0.2,0.6,0.1,1c-0.5,1.3-0.9,2.7-1.4,4v-0.1C59.9,68.8,59.7,68.8,59.6,68.8z"/>
	<path class="st1" d="M38.9,47.9c-0.1-1.1-1.2-1.6-1.7-2.5c1.5-0.5,2.3-0.4,5.8,0.5c0.3-0.6-0.4-1.1-0.3-1.6c1.5,0.6,2.2,1.7,3,4.7
		c-0.1,0.8,0.2,1.5-0.1,2.4c-0.5-0.4-0.9-0.9-1.3-1c-1.4-0.1-2.6-0.8-3.8-1.3C39.9,48.6,39.6,48,38.9,47.9L38.9,47.9z M40.9,47.2
		c0,1.7,1.3,2.5,2.7,1.7c0.4-0.2,0.8-0.4,0.5-0.9c-0.5-0.6-0.6,0.1-0.8,0.3c-0.5,0.4-0.9,0.3-1.3-0.1c-0.2-0.2-0.5-0.4-0.1-0.7
		c0.5-0.3,0.4-0.6,0.2-1c-0.2-0.3-0.5-0.3-0.8-0.2C40.8,46.4,41,46.9,40.9,47.2z"/>
	<path class="st1" d="M40.4,49c1.3,0.6,2.4,1.2,3.8,1.3c0.5,0,0.9,0.6,1.3,1c0.3-0.8,0-1.6,0.1-2.4c0.3-0.4,0.1-1,0.6-1.4
		c0.7,1.1,0.5,2.5,1.3,3.5c0.6-0.2,0.4-0.8,0.8-1c0.3,1.3,0.6,2.5,1.4,3.5c0.3,0.4,0.1,0.7-0.4,0.6c-0.5-0.1-1-0.3-1.4-0.5
		c-2.5-1.1-4.9-2.4-7.8-2.4c-0.3,0-0.6-0.2-0.9-0.3c-0.3-0.2-0.7-0.4-0.5-0.8c0.1-0.4,0.5-0.2,0.8-0.2C40.2,50,40.4,49.6,40.4,49z"
		/>
	<path class="st1" d="M56.2,48.9c0,0.8,0,1.5,0,2.5c1.6-1.5,3.7-1.3,5.3-2.4c0,0.8,0.2,1.3,1.1,1c0.2-0.1,0.6-0.2,0.6,0.2
		c0,0.2-0.2,0.4-0.3,0.5c-0.4,0.2-0.7,0.5-1.1,0.5c-3,0.1-5.7,1.4-8.3,2.7c-0.1,0-0.2,0.1-0.2,0.1c-0.4,0-0.8,0.5-1.2,0.1
		c-0.3-0.4,0.2-0.7,0.4-1c0.6-0.9,0.8-2,1.1-3c0.5,0.3,0.4,0.8,0.6,1.2c1-1.1,0.8-2.6,1.5-3.9C55.8,48,56,48.5,56.2,48.9z"/>
	<path class="st1" d="M57,68.6c-0.3-1.8-0.5-3.5-1.5-5c-0.4-2.6-0.7-5.3-1.1-7.9c0.9,0.9,1,2.1,1.3,3.2c0.8,2.8,1.4,5.7,1.5,8.6
		C57.3,67.8,57.4,68.3,57,68.6z"/>
	<path class="st1" d="M46.4,63.6c-0.7,0.9-0.8,2-1.3,3c-0.3,0-0.5-0.2-0.4-0.5c0.5-3.6,1.3-7.2,2.8-10.6
		C47.1,58.2,46.8,60.9,46.4,63.6z"/>
	<path class="st1" d="M45.5,70.7c1.1,1.2,2.5,1.7,4,2c0.5,0.1,0.9,0.2,0.8,0.8c-0.1,0.8-0.7,0.5-1,0.5c-1.2-0.2-2.4-0.3-3.4-1.1
		c-0.1-0.1-0.2-0.3-0.3-0.4v0.1C45.8,72,45.2,71.3,45.5,70.7z"/>
	<path class="st1" d="M56.5,72.6c-1.2,1.1-2.7,1.2-4.1,1.5c-0.4,0.1-0.8,0.1-0.8-0.5c0-0.5,0.1-0.7,0.7-0.8c1.4-0.3,2.8-0.8,4-1.7
		C56.8,71.4,55.8,72.2,56.5,72.6z"/>
	<path class="st1" d="M45,67.2c0.1,0.6,0.2,1.1-0.1,1.6C44.5,68.3,44.4,67.8,45,67.2z"/>
	<path class="st1" d="M62,34.6c-0.3,0.6-0.8,0.2-1.1,0.6c0.1,0.5,0.8,0.3,1,0.9c-1.2,0-2.4-0.3-3.5,0c-0.8,0.2-1.6,0.4-2.4,0.8
		c-0.3,0.1-1.1,0.2-0.3,0.9c0.2,0.2-0.2,0.4-0.4,0.5c-1.4,0.7-2.8,1.4-3.9,2.5c-0.4,0.4-0.6,0.3-1,0c-1.1-1-2.5-1.7-3.8-2.4
		c-0.3-0.2-1.1-0.2-0.2-0.7c0.3-0.2-0.3-0.4-0.5-0.5c-1.6-0.8-3.2-1.2-4.9-0.9c-0.4,0.1-0.7,0.2-1.1,0c0.2-0.5,0.7-0.5,1-0.8
		c0-0.5-0.7-0.1-0.8-0.7c2.2-0.5,4.4-0.3,6.7,0c-0.1-0.7-0.8-1-1.1-1.5c0.9-0.4,1.2-0.4,2.8,0.5c0.7,0.4,1.2,0.7,1.9,0.1
		c0.2-0.1,0.6-0.2,0.7-0.2c1.2,1,2.1,0.1,3.2-0.4c0.7-0.3,1.4-0.6,2.2-0.5c-0.3,0.8-1.2,1.1-1.4,1.9C57.4,34.2,59.7,34,62,34.6z"/>
	<path class="st1" d="M41.9,68.8c0.2,0,0.3,0,0.5,0c0,0.2,0,0.4-0.2,0.4C41.9,69.2,41.7,69.1,41.9,68.8z"/>
	<path class="st1" d="M59.6,68.8c0.2,0,0.3,0,0.4,0c0.2,0.3-0.1,0.4-0.3,0.4S59.6,69,59.6,68.8z"/>
	<path class="st1" d="M45.6,72.6c0.1,0.1,0.2,0.3,0.3,0.4C45.8,72.9,45.5,72.8,45.6,72.6z"/>
	<path class="st1" d="M61,47.2c0,0.9-0.4,1.4-1.1,1.8c-0.8,0.4-1.3,0-1.8-0.3c-0.4-0.2-0.4-0.5-0.2-0.8c0.4-0.5,0.4,0.1,0.6,0.2
		c0.4,0.4,0.8,0.5,1.3,0.2c0.4-0.3,0.8-0.6,0.1-1.1c-0.2-0.2,0.2-0.6,0.3-0.9c0.1-0.2,0.4-0.2,0.6-0.1C61.2,46.5,60.9,47,61,47.2z"
		/>
	<path class="st1" d="M40.9,47.2c0.1-0.3-0.1-0.8,0.4-0.9c0.3-0.1,0.6,0,0.8,0.2c0.2,0.3,0.3,0.7-0.2,1c-0.4,0.3-0.1,0.5,0.1,0.7
		c0.4,0.4,0.9,0.4,1.3,0.1c0.2-0.2,0.3-0.9,0.8-0.3c0.4,0.5-0.1,0.7-0.5,0.9C42.2,49.6,40.9,48.8,40.9,47.2z"/>
</g>
<g>
	<rect x="25.8" y="44.3" class="st2" width="50.5" height="23.6"/>
	<path class="st3" d="M41.5,44.8v8.4h-2v-3.5h-3.8v3.5h-2v-8.4h2v3.3h3.8v-3.3L41.5,44.8L41.5,44.8z"/>
	<path class="st3" d="M44.5,52.4c-0.7-0.7-1-1.6-1-2.9v-4.7h2v4.6c0,1.5,0.6,2.3,1.9,2.3c0.6,0,1.1-0.2,1.4-0.6
		c0.3-0.4,0.5-0.9,0.5-1.7v-4.6h1.9v4.7c0,1.2-0.3,2.2-1,2.9c-0.7,0.7-1.6,1-2.8,1C46.1,53.4,45.1,53.1,44.5,52.4z"/>
	<path class="st3" d="M60.8,44.8v8.4h-1.6L55,48.2v5.1H53v-8.4h1.6l4.2,5.1v-5.1L60.8,44.8L60.8,44.8z"/>
	<path class="st3" d="M64.5,46.5h-2.7v-1.6h7.4v1.6h-2.7v6.9h-1.9V46.5z"/>
	<path class="st3" d="M49,54.2l-3,9.1h-2.3l-2-6.2l-2.1,6.2h-2.3l-3-9.1h2.2l2.1,6.4l2.2-6.4h2l2.1,6.5l2.1-6.5H49z"/>
	<path class="st3" d="M57.3,61.7v1.7h-7.1v-9.1h6.9v1.7h-4.8v2h4.2v1.7h-4.2v2.1L57.3,61.7L57.3,61.7z"/>
	<path class="st3" d="M66.9,59.4c0.3,0.4,0.5,0.9,0.5,1.4c0,0.8-0.3,1.4-0.9,1.9c-0.6,0.4-1.5,0.7-2.7,0.7H59v-9.1h4.5
		c1.1,0,2,0.2,2.6,0.6s0.9,1,0.9,1.7c0,0.5-0.1,0.8-0.3,1.2c-0.2,0.4-0.5,0.6-0.9,0.8C66.2,58.8,66.6,59,66.9,59.4z M61.1,55.8V58
		h2.1c0.5,0,0.9-0.1,1.2-0.3c0.3-0.2,0.4-0.5,0.4-0.8c0-0.4-0.1-0.6-0.4-0.8c-0.3-0.2-0.7-0.3-1.2-0.3L61.1,55.8L61.1,55.8z
		 M64.8,61.5c0.3-0.2,0.4-0.5,0.4-0.9c0-0.8-0.6-1.1-1.7-1.1h-2.5v2.3h2.5C64.1,61.8,64.5,61.7,64.8,61.5z"/>
</g>
<g>
</g>
<g>
</g>
<g>
</g>
<g>
</g>
<g>
</g>
<g>
</g>
</svg>
